<svg width="107" height="17" viewBox="0 0 107 17" fill="none" xmlns="http://www.w3.org/2000/svg">
<path d="M12.0625 1.625V3L10.8438 3.23438V13H8.57031L3.97656 5.34375L3.92969 5.35156V11.3984L5.14844 11.6328V13H0.4375V11.6328L1.64844 11.3984V3.23438L0.4375 3V1.625H1.64844H3.92969L8.52344 9.28125L8.57031 9.27344V3.23438L7.35156 3V1.625H10.8438H12.0625ZM16.8984 13.1641C15.6797 13.1641 14.7057 12.7734 13.9766 11.9922C13.2474 11.2109 12.8828 10.2188 12.8828 9.01562V8.70312C12.8828 7.44792 13.2266 6.41406 13.9141 5.60156C14.6068 4.78906 15.5339 4.38542 16.6953 4.39062C17.8359 4.39062 18.7214 4.73438 19.3516 5.42188C19.9818 6.10938 20.2969 7.03906 20.2969 8.21094V9.45312H15.25L15.2344 9.5C15.276 10.0573 15.4609 10.5156 15.7891 10.875C16.1224 11.2344 16.5729 11.4141 17.1406 11.4141C17.6458 11.4141 18.0651 11.3646 18.3984 11.2656C18.7318 11.1615 19.0964 11 19.4922 10.7812L20.1094 12.1875C19.7604 12.4635 19.3073 12.6953 18.75 12.8828C18.1979 13.0703 17.5807 13.1641 16.8984 13.1641ZM16.6953 6.14844C16.2734 6.14844 15.9401 6.3099 15.6953 6.63281C15.4505 6.95573 15.2995 7.38021 15.2422 7.90625L15.2656 7.94531H18.0625V7.74219C18.0625 7.25781 17.9479 6.8724 17.7188 6.58594C17.4948 6.29427 17.1536 6.14844 16.6953 6.14844ZM33.4297 5.92188L32.5781 6.03125L30.8125 13H28.9062L27.3359 7.96875H27.2891L25.7188 13H23.8203L22.0469 6.03125L21.1953 5.92188V4.54688H25.0234V5.92188L24.125 6.09375L24.9219 9.96094H24.9688L26.5469 4.54688H28.0781L29.6719 9.97656H29.7188L30.5078 6.10156L29.6016 5.92188V4.54688H33.4297V5.92188ZM41.1094 7.45312H39.5781L39.3359 6.39844C39.1797 6.27344 38.9818 6.16927 38.7422 6.08594C38.5078 6.0026 38.2474 5.96094 37.9609 5.96094C37.5599 5.96094 37.2422 6.05208 37.0078 6.23438C36.7734 6.41146 36.6562 6.63542 36.6562 6.90625C36.6562 7.16146 36.7682 7.375 36.9922 7.54688C37.2161 7.71354 37.6641 7.86198 38.3359 7.99219C39.3828 8.20052 40.1589 8.50781 40.6641 8.91406C41.1693 9.3151 41.4219 9.86979 41.4219 10.5781C41.4219 11.3385 41.0938 11.9609 40.4375 12.4453C39.7865 12.9245 38.9271 13.1641 37.8594 13.1641C37.2083 13.1641 36.6094 13.0703 36.0625 12.8828C35.5208 12.6901 35.0391 12.4167 34.6172 12.0625L34.5938 10.1641H36.1875L36.5 11.2656C36.6354 11.3802 36.8203 11.4661 37.0547 11.5234C37.2891 11.5755 37.5339 11.6016 37.7891 11.6016C38.2526 11.6016 38.6042 11.5182 38.8438 11.3516C39.0885 11.1849 39.2109 10.9583 39.2109 10.6719C39.2109 10.4219 39.0885 10.2057 38.8438 10.0234C38.599 9.84115 38.1484 9.67969 37.4922 9.53906C36.4974 9.33594 35.7448 9.03646 35.2344 8.64062C34.7292 8.23958 34.4766 7.69531 34.4766 7.00781C34.4766 6.29948 34.7682 5.6901 35.3516 5.17969C35.9349 4.66406 36.7656 4.40625 37.8438 4.40625C38.5 4.40625 39.1198 4.49479 39.7031 4.67188C40.2917 4.84896 40.7526 5.07552 41.0859 5.35156L41.1094 7.45312ZM49.7344 8H45.8828V11.25H49.5547L49.6562 9.89062H51.3906V13H42.3906V11.6328L43.6016 11.3984V3.23438L42.3906 3V1.625H43.6016H51.375V4.74219H49.625L49.5234 3.38281H45.8828V6.24219H49.7344V8ZM52.4219 11.6328L53.2109 11.5078L55.5078 8.72656L53.2891 6.05469L52.5 5.92188V4.54688H56.3047V5.86719L55.5312 5.96094L56.8125 7.58594L58.0703 5.96094L57.2812 5.86719V4.54688H61.1016V5.92188L60.3359 6.05469L58.1641 8.72656L60.4531 11.5078L61.25 11.6328V13H57.3828V11.6875L58.1562 11.5938L56.8438 9.89062L55.5078 11.6016L56.1875 11.6875V13H52.4219V11.6328ZM61.8047 5.92188V4.54688H65.1172L65.2266 5.53125C65.4766 5.16667 65.776 4.88542 66.125 4.6875C66.474 4.48958 66.8802 4.39062 67.3438 4.39062C68.3906 4.39062 69.2031 4.79948 69.7812 5.61719C70.3594 6.4349 70.6484 7.51042 70.6484 8.84375V9.00781C70.6484 10.2578 70.3594 11.263 69.7812 12.0234C69.2031 12.7839 68.3958 13.1641 67.3594 13.1641C66.9167 13.1641 66.5234 13.0833 66.1797 12.9219C65.8359 12.7552 65.5417 12.513 65.2969 12.1953V14.6406L66.3984 14.875V16.25H61.9219V14.875L63.0234 14.6406V6.15625L61.8047 5.92188ZM68.3672 8.84375C68.3672 8.04688 68.2344 7.40104 67.9688 6.90625C67.7031 6.41146 67.2969 6.16406 66.75 6.16406C66.4062 6.16406 66.112 6.23438 65.8672 6.375C65.6276 6.51562 65.4375 6.71615 65.2969 6.97656V10.6797C65.4375 10.9193 65.6276 11.1016 65.8672 11.2266C66.112 11.3516 66.4115 11.4141 66.7656 11.4141C67.3177 11.4141 67.7214 11.1979 67.9766 10.7656C68.237 10.3333 68.3672 9.7474 68.3672 9.00781V8.84375ZM71.2656 2.1875V0.8125H74.7656V11.3984L75.8672 11.6328V13H71.3828V11.6328L72.4844 11.3984V2.42188L71.2656 2.1875ZM76.4609 8.69531C76.4609 7.4349 76.8125 6.40365 77.5156 5.60156C78.224 4.79427 79.2005 4.39062 80.4453 4.39062C81.6953 4.39062 82.6719 4.79167 83.375 5.59375C84.0833 6.39583 84.4375 7.42969 84.4375 8.69531V8.85938C84.4375 10.1302 84.0833 11.1667 83.375 11.9688C82.6719 12.7656 81.7005 13.1641 80.4609 13.1641C79.2057 13.1641 78.224 12.7656 77.5156 11.9688C76.8125 11.1667 76.4609 10.1302 76.4609 8.85938V8.69531ZM78.7422 8.85938C78.7422 9.63021 78.8776 10.25 79.1484 10.7188C79.4193 11.1823 79.8568 11.4141 80.4609 11.4141C81.0495 11.4141 81.4792 11.1797 81.75 10.7109C82.026 10.2422 82.1641 9.625 82.1641 8.85938V8.69531C82.1641 7.94531 82.026 7.33333 81.75 6.85938C81.474 6.38542 81.0391 6.14844 80.4453 6.14844C79.8516 6.14844 79.4193 6.38542 79.1484 6.85938C78.8776 7.33333 78.7422 7.94531 78.7422 8.69531V8.85938ZM85.6016 11.6328L86.6953 11.3984V6.15625L85.4844 5.92188V4.54688H88.8203L88.9219 5.78125C89.1198 5.34375 89.375 5.0026 89.6875 4.75781C90 4.51302 90.362 4.39062 90.7734 4.39062C90.8932 4.39062 91.0182 4.40104 91.1484 4.42188C91.2839 4.4375 91.3958 4.45833 91.4844 4.48438L91.2422 6.5625L90.3047 6.53906C89.9714 6.53906 89.6953 6.60417 89.4766 6.73438C89.2578 6.86458 89.0911 7.04948 88.9766 7.28906V11.3984L90.0703 11.6328V13H85.6016V11.6328ZM96.0547 13.1641C94.8359 13.1641 93.862 12.7734 93.1328 11.9922C92.4036 11.2109 92.0391 10.2188 92.0391 9.01562V8.70312C92.0391 7.44792 92.3828 6.41406 93.0703 5.60156C93.763 4.78906 94.6901 4.38542 95.8516 4.39062C96.9922 4.39062 97.8776 4.73438 98.5078 5.42188C99.138 6.10938 99.4531 7.03906 99.4531 8.21094V9.45312H94.4062L94.3906 9.5C94.4323 10.0573 94.6172 10.5156 94.9453 10.875C95.2786 11.2344 95.7292 11.4141 96.2969 11.4141C96.8021 11.4141 97.2214 11.3646 97.5547 11.2656C97.888 11.1615 98.2526 11 98.6484 10.7812L99.2656 12.1875C98.9167 12.4635 98.4635 12.6953 97.9062 12.8828C97.3542 13.0703 96.737 13.1641 96.0547 13.1641ZM95.8516 6.14844C95.4297 6.14844 95.0964 6.3099 94.8516 6.63281C94.6068 6.95573 94.4557 7.38021 94.3984 7.90625L94.4219 7.94531H97.2188V7.74219C97.2188 7.25781 97.1042 6.8724 96.875 6.58594C96.651 6.29427 96.3099 6.14844 95.8516 6.14844ZM100.711 11.6328L101.805 11.3984V6.15625L100.594 5.92188V4.54688H103.93L104.031 5.78125C104.229 5.34375 104.484 5.0026 104.797 4.75781C105.109 4.51302 105.471 4.39062 105.883 4.39062C106.003 4.39062 106.128 4.40104 106.258 4.42188C106.393 4.4375 106.505 4.45833 106.594 4.48438L106.352 6.5625L105.414 6.53906C105.081 6.53906 104.805 6.60417 104.586 6.73438C104.367 6.86458 104.201 7.04948 104.086 7.28906V11.3984L105.18 11.6328V13H100.711V11.6328Z" fill="white"/>
</svg>
