<svg width="107" height="17" fill="none" xmlns="http://www.w3.org/2000/svg"><path d="M12.063 1.625V3l-1.22.234V13H8.57L3.977 5.344l-.047.008v6.046l1.218.235V13H.438v-1.367l1.21-.235V3.234L.438 3V1.625H3.93l4.593 7.656.047-.008V3.234L7.352 3V1.625h4.711zm4.835 11.54c-1.218 0-2.192-.392-2.921-1.173-.73-.781-1.094-1.773-1.094-2.976v-.313c0-1.255.344-2.289 1.031-3.101.693-.813 1.62-1.217 2.781-1.211 1.14 0 2.026.343 2.657 1.03.63.688.945 1.618.945 2.79v1.242H15.25l-.016.047c.042.557.227 1.016.555 1.375.333.36.784.54 1.352.54.505 0 .924-.05 1.257-.15a5.982 5.982 0 001.094-.484l.617 1.406c-.349.277-.802.508-1.359.696a5.735 5.735 0 01-1.852.281zm-.203-7.017c-.422 0-.755.162-1 .485-.245.323-.396.747-.453 1.273l.024.04h2.796v-.204c0-.484-.114-.87-.343-1.156-.224-.292-.565-.438-1.024-.438zm16.735-.226l-.852.11L30.812 13h-1.906l-1.57-5.031h-.047L25.72 13H23.82l-1.773-6.969-.852-.11V4.548h3.828v1.375l-.898.172.797 3.867h.047l1.578-5.414h1.531l1.594 5.43h.047l.789-3.875-.906-.18V4.547h3.828v1.375zm7.68 1.531h-1.532l-.242-1.055a1.989 1.989 0 00-.594-.312 2.32 2.32 0 00-.781-.125c-.401 0-.719.091-.953.273-.235.177-.352.401-.352.672 0 .255.112.469.336.64.224.168.672.316 1.344.446 1.047.209 1.823.516 2.328.922.505.401.758.956.758 1.664 0 .76-.328 1.383-.984 1.867-.652.48-1.51.72-2.579.72-.65 0-1.25-.095-1.797-.282a4.65 4.65 0 01-1.445-.82l-.023-1.899h1.593l.313 1.102c.135.114.32.2.555.257.234.053.479.079.734.079.464 0 .815-.084 1.055-.25a.782.782 0 00.367-.68c0-.25-.122-.466-.367-.649-.245-.182-.696-.343-1.352-.484-.995-.203-1.747-.503-2.258-.898-.505-.401-.757-.946-.757-1.633 0-.709.291-1.318.875-1.828.583-.516 1.414-.774 2.492-.774.656 0 1.276.089 1.86.266.588.177 1.049.404 1.382.68l.023 2.101zM49.733 8h-3.851v3.25h3.672l.101-1.36h1.735V13h-9v-1.367l1.21-.235V3.234L42.392 3V1.625h8.984v3.117h-1.75l-.102-1.36h-3.64v2.86h3.851V8zm2.688 3.633l.789-.125 2.297-2.781-2.219-2.672-.789-.133V4.547h3.805v1.32l-.774.094 1.282 1.625L58.07 5.96l-.789-.094v-1.32h3.82v1.375l-.765.133-2.172 2.672 2.29 2.78.796.126V13h-3.867v-1.313l.773-.093-1.312-1.703-1.336 1.71.68.086V13h-3.766v-1.367zm9.383-5.711V4.547h3.312l.11.984c.25-.364.549-.646.898-.843.349-.198.755-.297 1.219-.297 1.047 0 1.86.408 2.437 1.226.578.818.867 1.893.867 3.227v.164c0 1.25-.289 2.255-.867 3.015-.578.76-1.385 1.141-2.422 1.141-.442 0-.836-.08-1.18-.242a2.46 2.46 0 01-.882-.727v2.446l1.101.234v1.375h-4.476v-1.375l1.101-.234V6.156l-1.218-.234zm6.562 2.922c0-.797-.133-1.443-.398-1.938-.266-.495-.672-.742-1.219-.742-.344 0-.638.07-.883.211-.24.14-.43.341-.57.602v3.703c.14.24.33.422.57.547.245.125.544.187.899.187.552 0 .955-.216 1.21-.648.261-.433.391-1.019.391-1.758v-.164zm2.899-6.656V.812h3.5v10.586l1.101.235V13h-4.484v-1.367l1.101-.235V2.422l-1.218-.235zm5.195 6.507c0-1.26.352-2.291 1.055-3.093.708-.808 1.684-1.211 2.93-1.211 1.25 0 2.226.4 2.929 1.203.708.802 1.063 1.836 1.063 3.101v.164c0 1.271-.355 2.308-1.063 3.11-.703.797-1.674 1.195-2.914 1.195-1.255 0-2.237-.398-2.945-1.195-.704-.802-1.055-1.839-1.055-3.11v-.164zm2.281.164c0 .771.136 1.391.406 1.86.271.463.709.695 1.313.695.588 0 1.018-.234 1.289-.703.276-.469.414-1.086.414-1.852v-.164c0-.75-.138-1.362-.414-1.836-.276-.474-.71-.71-1.305-.71-.593 0-1.026.236-1.297.71-.27.474-.406 1.086-.406 1.836v.164zm6.86 2.774l1.093-.235V6.156l-1.21-.234V4.547h3.335l.102 1.234c.198-.437.453-.778.766-1.023a1.711 1.711 0 011.085-.367c.12 0 .245.01.375.03.136.016.248.037.336.063l-.242 2.079-.937-.024c-.334 0-.61.065-.828.195-.22.13-.386.315-.5.555v4.11l1.093.234V13h-4.468v-1.367zm10.453 1.531c-1.22 0-2.193-.39-2.922-1.172-.73-.781-1.094-1.773-1.094-2.976v-.313c0-1.255.344-2.289 1.031-3.101.693-.813 1.62-1.217 2.782-1.211 1.14 0 2.026.343 2.656 1.03.63.688.945 1.618.945 2.79v1.242h-5.047l-.015.047c.041.557.226 1.016.554 1.375.334.36.784.54 1.352.54.505 0 .924-.05 1.258-.15a5.984 5.984 0 001.093-.484l.618 1.406c-.35.277-.803.508-1.36.696a5.734 5.734 0 01-1.851.281zm-.203-7.016c-.422 0-.756.162-1 .485-.245.323-.396.747-.454 1.273l.024.04h2.797v-.204c0-.484-.115-.87-.344-1.156-.224-.292-.565-.438-1.023-.438zm4.859 5.485l1.094-.235V6.156l-1.211-.234V4.547h3.336l.101 1.234c.198-.437.453-.778.766-1.023a1.71 1.71 0 011.086-.367c.12 0 .245.01.375.03.135.016.247.037.336.063l-.242 2.079-.938-.024c-.333 0-.609.065-.828.195-.219.13-.385.315-.5.555v4.11l1.094.234V13h-4.469v-1.367z" fill="#fff"/></svg>