<svg width="158" height="17" fill="none" xmlns="http://www.w3.org/2000/svg"><path d="M7.624 13V8.017H4.671L2.025 13H.224l2.97-5.45C1.542 6.9.716 5.738.716 4.063c0-1.22.398-2.166 1.195-2.84C2.714.544 3.827.204 5.251.204h4.07V13H7.623zm-5.22-8.938c0 .773.24 1.394.72 1.863.486.469 1.16.706 2.022.712h2.478V1.592h-2.4c-.913 0-1.614.217-2.1.65-.48.434-.72 1.04-.72 1.82zM19.901 13h-1.626V8.94h-4.368V13h-1.635V3.49h1.635v4.122h4.368V3.49h1.626V13zm2.54-1.327l.563-.694c.633-.82.993-2.051 1.08-3.692l.15-3.797h6.126v8.183h1.222v4.122h-1.626V13h-6.636v2.795h-1.626l.01-4.122h.737zm1.925 0h4.368v-6.68H25.81l-.097 2.268c-.1 1.892-.548 3.363-1.345 4.412zm12.964 1.503c-1.289 0-2.338-.422-3.146-1.266-.809-.85-1.213-1.983-1.213-3.401V8.21c0-.943.178-1.784.536-2.523.363-.744.867-1.324 1.511-1.74a3.803 3.803 0 012.11-.633c1.236 0 2.197.408 2.883 1.222.685.815 1.028 1.98 1.028 3.498v.677h-6.442c.023.937.296 1.696.817 2.276.527.575 1.195.862 2.004.862.574 0 1.06-.118 1.459-.352a3.666 3.666 0 001.046-.932l.993.774c-.797 1.224-1.992 1.837-3.586 1.837zM37.13 4.65c-.656 0-1.207.24-1.652.721-.446.475-.721 1.143-.827 2.004h4.764v-.123c-.047-.826-.27-1.465-.668-1.916-.398-.457-.937-.686-1.617-.686zm8.763 4.298h-1.187V13H43.07V3.49h1.635v4.026h1.064l3.199-4.026h1.968l-3.761 4.57L51.253 13h-2.066l-3.295-4.052zm10.432 2.9c.58 0 1.087-.175 1.52-.527.434-.351.675-.79.721-1.318h1.538c-.029.545-.216 1.063-.562 1.556a3.696 3.696 0 01-1.389 1.177 3.967 3.967 0 01-1.828.44c-1.295 0-2.326-.43-3.093-1.292-.762-.867-1.143-2.051-1.143-3.551v-.272c0-.926.17-1.75.51-2.47.34-.72.826-1.28 1.459-1.679.638-.398 1.391-.598 2.258-.598 1.067 0 1.952.32 2.655.958.709.64 1.087 1.468 1.133 2.488h-1.538c-.046-.615-.28-1.12-.703-1.512-.416-.398-.931-.598-1.547-.598-.826 0-1.467.3-1.924.897-.451.592-.677 1.45-.677 2.575v.308c0 1.095.226 1.94.677 2.53.45.593 1.095.889 1.933.889zm5.643.3c0-.282.082-.516.246-.704.17-.187.422-.28.756-.28s.586.093.756.28a.988.988 0 01.263.704c0 .269-.088.495-.263.676-.17.182-.422.273-.756.273s-.586-.091-.756-.273a.972.972 0 01-.246-.676zm14.74.852H75.01V1.592H68.7V13h-1.688V.203h9.694V13zM87.56 8.35c0 1.448-.332 2.614-.994 3.499-.662.884-1.558 1.327-2.69 1.327-1.153 0-2.062-.366-2.724-1.099v4.58h-1.626V3.49h1.486l.079 1.055c.662-.82 1.582-1.23 2.76-1.23 1.142 0 2.044.43 2.707 1.291.668.862 1.002 2.06 1.002 3.595v.15zm-1.626-.184c0-1.072-.229-1.919-.686-2.54-.457-.621-1.084-.932-1.88-.932-.985 0-1.724.437-2.216 1.31v4.544c.487.867 1.23 1.3 2.233 1.3.779 0 1.397-.307 1.854-.922.463-.621.695-1.541.695-2.76zM95.505 13c-.093-.188-.17-.521-.228-1.002-.755.785-1.658 1.178-2.707 1.178-.937 0-1.708-.264-2.311-.791-.598-.533-.897-1.207-.897-2.022 0-.99.375-1.758 1.125-2.302.756-.551 1.817-.827 3.182-.827h1.582v-.747c0-.568-.17-1.02-.51-1.353-.34-.34-.84-.51-1.503-.51-.58 0-1.066.147-1.459.44-.392.292-.589.647-.589 1.063h-1.634c0-.475.167-.932.5-1.371.34-.445.797-.797 1.372-1.055a4.644 4.644 0 011.907-.387c1.096 0 1.954.276 2.575.827.621.545.944 1.297.967 2.258v4.377c0 .873.111 1.568.334 2.083V13h-1.705zm-2.697-1.24c.51 0 .993-.131 1.45-.395.457-.263.788-.606.993-1.028V8.386h-1.274c-1.993 0-2.989.583-2.989 1.749 0 .51.17.908.51 1.195.34.287.776.43 1.31.43zm9.58-2.812h-1.187V13h-1.635V3.49h1.635v4.026h1.064l3.199-4.026h1.969l-3.762 4.57 4.078 4.94h-2.065l-3.296-4.052zm13.825-4.14h-3.191V13h-1.626V4.809h-3.128V3.49h7.945V4.81zm7.734-1.318h1.626V13h-1.626V6.065L119.562 13h-1.626V3.49h1.626v6.944l4.385-6.944zm7.199 5.458h-1.187V13h-1.635V3.49h1.635v4.026h1.063l3.2-4.026h1.968l-3.761 4.57 4.078 4.94h-2.066l-3.295-4.052zm9.87 1.67l2.214-7.128h1.741l-3.824 10.978c-.591 1.582-1.532 2.373-2.821 2.373l-.307-.027-.607-.114v-1.318l.44.035c.55 0 .978-.111 1.283-.334.31-.223.565-.63.764-1.222l.361-.966-3.393-9.405h1.776l2.373 7.128zm10.889.229l3.235-7.357h2.03V13h-1.626V6.083L152.468 13h-1.125l-3.138-7.066V13h-1.626V3.49h2.109l3.217 7.357z" fill="#1A1B22"/></svg>